<svg xmlns="http://www.w3.org/2000/svg" version="1.1" xmlns:xlink="http://www.w3.org/1999/xlink" xmlns:svgjs="http://svgjs.dev/svgjs" width="1500" height="1500" viewBox="0 0 1500 1500"><g transform="matrix(1,0,0,1,0.5243362831859031,0.5243362831857894)"><svg viewBox="0 0 339 339" data-background-color="#ffffff" preserveAspectRatio="xMidYMid meet" height="1500" width="1500" xmlns="http://www.w3.org/2000/svg" xmlns:xlink="http://www.w3.org/1999/xlink"><g id="tight-bounds" transform="matrix(1,0,0,1,-0.11849999999998317,-0.11849999999998317)"><svg viewBox="0 0 339.23666899931607 339.23666899931607" height="339.23666899931607" width="339.23666899931607"><g><svg></svg></g><g><svg viewBox="0 0 339.23666899931607 339.23666899931607" height="339.23666899931607" width="339.23666899931607"><g><path d="M0 169.618c0-93.678 75.941-169.618 169.618-169.618 93.678 0 169.618 75.941 169.619 169.618 0 93.678-75.941 169.618-169.619 169.619-93.678 0-169.618-75.941-169.618-169.619zM169.618 334.945c91.307 0 165.326-74.019 165.327-165.327 0-91.307-74.019-165.326-165.327-165.326-91.307 0-165.326 74.019-165.326 165.326 0 91.307 74.019 165.326 165.326 165.327z" data-fill-palette-color="tertiary" fill="#172554" stroke="transparent"></path><ellipse rx="162.8336011196717" ry="162.8336011196717" cx="169.61833449965803" cy="169.61833449965803" fill="#172554" stroke="transparent" stroke-width="0" fill-opacity="1" data-fill-palette-color="tertiary"></ellipse></g><g transform="matrix(1,0,0,1,64.31717033194325,73.83911388607947)"><svg viewBox="0 0 210.60232833542958 191.55844122715712" height="191.55844122715712" width="210.60232833542958"><g><svg viewBox="0 0 210.60232833542958 191.55844122715712" height="191.55844122715712" width="210.60232833542958"><g><svg viewBox="0 0 213.1584412271571 193.88341552829638" height="191.55844122715712" width="210.60232833542958"><g transform="matrix(1,0,0,1,0,123.21434269427293)"><svg viewBox="0 0 213.1584412271571 70.66907283402347" height="70.66907283402347" width="213.1584412271571"><g id="textblocktransform"><svg viewBox="0 0 213.1584412271571 70.66907283402347" height="70.66907283402347" width="213.1584412271571" id="textblock"><g><svg viewBox="0 0 213.1584412271571 48.17139914738014" height="48.17139914738014" width="213.1584412271571"><g transform="matrix(1,0,0,1,0,0)"><svg width="213.1584412271571" viewBox="3.25 -33.5 150.44 34" height="48.17139914738014" data-palette-color="#ffffff"><path d="M17.05 0L3.25 0 3.25-0.8 7.25-2.8 7.25-30.2 3.25-32.2 3.25-33 15.9-33Q19.2-33 21.83-32.18 24.45-31.35 25.95-29.73 27.45-28.1 27.45-25.6L27.45-25.6Q27.45-23.05 25.75-20.93 24.05-18.8 20.85-17.9L20.85-17.9Q25.3-17.3 27.8-15.13 30.3-12.95 30.3-9.6L30.3-9.6Q30.3-6.85 28.58-4.67 26.85-2.5 23.85-1.25 20.85 0 17.05 0L17.05 0ZM14.75-30.25L14.75-30.25 11.75-30.25 11.75-18.4 15.05-18.4Q18.6-18.4 20.6-19.93 22.6-21.45 22.6-24.2L22.6-24.2Q22.6-30.25 14.75-30.25ZM16.65-15.65L16.65-15.65 11.75-15.65 11.75-2.75 17-2.75Q20.95-2.75 23.2-4.55 25.45-6.35 25.45-9.2L25.45-9.2Q25.45-12.6 23.18-14.13 20.9-15.65 16.65-15.65ZM48.35 0.25L46.6 0.25 37.4-30.4 33.65-32.2 33.65-33 46.35-33 46.35-32.2 42.1-30.35 48.35-8.7 48.6-8.7 57.25-33.25 59.1-33.25 67.95-8.7 68.25-8.7 74.4-30.3 70.15-32.2 70.15-33 81.2-33 81.2-32.2 77.85-30.35 68.55 0.25 66.8 0.25 57.7-24.25 57.45-24.25 48.35 0.25ZM96.05 0L84.95 0 84.95-0.8 88.9-2.8 89.95-30.15 85.65-32.2 85.65-33 94.9-33 106.45-6.4 117.95-33 126.75-33 126.75-32.2 122.55-30.2 123.4-2.8 126.9-0.8 126.9 0 115.4 0 115.4-0.8 119.09-2.75 118.59-27.4 106.65 0.25 104.4 0.25 92.65-27.05 92-2.75 96.05-0.8 96.05 0ZM143.09 0.5L143.09 0.5Q139.99 0.5 137.84-0.08 135.69-0.65 133.39-1.8L133.39-1.8 132.89-10 133.69-10 136.14-4.7Q137.94-3.2 139.64-2.53 141.34-1.85 143.09-1.85L143.09-1.85Q146.04-1.85 147.72-3.4 149.39-4.95 149.39-7.6L149.39-7.6Q149.39-9.8 148.42-11.05 147.44-12.3 145.62-13.28 143.79-14.25 141.29-15.5L141.29-15.5Q138.94-16.7 137.29-17.85 135.64-19 134.79-20.53 133.94-22.05 133.94-24.35L133.94-24.35Q133.94-26.05 134.77-27.68 135.59-29.3 137.02-30.63 138.44-31.95 140.22-32.73 141.99-33.5 143.89-33.5L143.89-33.5Q146.19-33.5 148.14-32.95 150.09-32.4 152.14-31.4L152.14-31.4 152.64-23.4 151.84-23.4 149.54-28.65Q147.79-29.95 146.49-30.53 145.19-31.1 143.49-31.1L143.49-31.1Q141.29-31.1 139.87-29.6 138.44-28.1 138.44-25.9L138.44-25.9Q138.44-23.35 139.99-21.93 141.54-20.5 144.84-18.9L144.84-18.9Q147.89-17.4 149.84-16.13 151.79-14.85 152.74-13.2 153.69-11.55 153.69-9L153.69-9Q153.69-6.65 152.69-4.88 151.69-3.1 150.12-1.9 148.54-0.7 146.67-0.1 144.79 0.5 143.09 0.5Z" opacity="1" transform="matrix(1,0,0,1,0,0)" fill="#ffffff" class="wordmark-text-0" data-fill-palette-color="quaternary" id="text-0"></path></svg></g></svg></g><g transform="matrix(1,0,0,1,0,59.54351037249706)"><svg viewBox="0 0 213.1584412271571 11.125562461526412" height="11.125562461526412" width="213.1584412271571"><g transform="matrix(1,0,0,1,0,0)"><svg width="213.1584412271571" viewBox="3.3 -35.7 697.4000000000001 36.400000000000006" height="11.125562461526412" data-palette-color="#ffffff"><path d="M19-18.85Q24.65-16.75 24.65-10L24.65-10Q24.65-5.4 21.98-2.7 19.3 0 14.6 0L14.6 0 3.3 0 3.3-35 12.4-35Q17.05-35 19.6-32.83 22.15-30.65 22.15-26.4L22.15-26.4Q22.15-23.9 21.35-21.93 20.55-19.95 19-18.85L19-18.85ZM7.85-30.85L7.85-20.4 11.85-20.4Q14.85-20.4 16.07-21.53 17.3-22.65 17.3-25.7L17.3-25.7Q17.3-28.65 16.07-29.75 14.85-30.85 11.85-30.85L11.85-30.85 7.85-30.85ZM14.2-4.15Q16.75-4.15 18.23-5.68 19.7-7.2 19.7-10.15L19.7-10.15Q19.7-13.35 18.28-14.78 16.85-16.2 14.2-16.2L14.2-16.2 7.85-16.2 7.85-4.15 14.2-4.15ZM30.25 0L30.25-35 39.25-35Q44.75-35 47.83-32.1 50.9-29.2 50.9-23.65L50.9-23.65Q50.9-18.1 47.83-15.18 44.75-12.25 39.25-12.25L39.25-12.25 34.85-12.25 34.85 0 30.25 0ZM34.85-16.45L38.85-16.45Q46.15-16.45 46.15-23.65L46.15-23.65Q46.15-30.85 38.85-30.85L38.85-30.85 34.85-30.85 34.85-16.45ZM63.4 0.7Q60.95 0.7 58.28 0.13 55.6-0.45 53.9-1.25L53.9-1.25 54.55-6.25Q56.55-5 59-4.23 61.45-3.45 63.85-3.45L63.85-3.45Q66.95-3.45 68.7-4.73 70.45-6 70.45-8.45L70.45-8.45Q70.45-10.2 69.63-11.45 68.8-12.7 67.25-13.68 65.7-14.65 62.9-15.9L62.9-15.9Q59.6-17.4 57.68-18.65 55.75-19.9 54.6-21.75 53.45-23.6 53.45-26.35L53.45-26.35Q53.45-29.15 54.9-31.28 56.35-33.4 58.98-34.55 61.6-35.7 64.95-35.7L64.95-35.7Q67.5-35.7 69.78-35.15 72.05-34.6 73.65-33.8L73.65-33.8 73.15-29.1Q69-31.55 64.7-31.55L64.7-31.55Q61.8-31.55 60.15-30.35 58.5-29.15 58.5-26.65L58.5-26.65Q58.5-24.95 59.38-23.83 60.25-22.7 61.8-21.83 63.35-20.95 66.5-19.5L66.5-19.5Q71.2-17.4 73.35-14.98 75.5-12.55 75.5-8.9L75.5-8.9Q75.5-4.45 72.25-1.88 69 0.7 63.4 0.7L63.4 0.7ZM94.25 0.7Q89.4 0.7 85.8-1.53 82.2-3.75 80.23-7.88 78.25-12 78.25-17.5L78.25-17.5Q78.25-22.95 80.28-27.08 82.3-31.2 85.9-33.45 89.5-35.7 94.05-35.7L94.05-35.7Q98.05-35.7 101.65-34.2L101.65-34.2 101.15-29.95Q97.95-31.55 94.95-31.55L94.95-31.55Q91.25-31.55 88.63-29.7 86-27.85 84.65-24.65 83.3-21.45 83.3-17.5L83.3-17.5Q83.3-13.55 84.65-10.35 86-7.15 88.63-5.3 91.25-3.45 95-3.45L95-3.45Q98.25-3.45 101.15-4.95L101.15-4.95 101.65-0.7Q98.45 0.7 94.25 0.7L94.25 0.7ZM121.7 0L113.05-35 117.95-35 124.25-6.35 130.85-34.3 136-34.3 142.55-6.35 148.9-35 153.75-35 145.15 0 140 0 133.35-27.7 126.85 0 121.7 0ZM170.25 0.7Q165.95 0.7 162.58-1.55 159.2-3.8 157.3-7.93 155.4-12.05 155.4-17.5L155.4-17.5Q155.4-22.95 157.3-27.08 159.2-31.2 162.58-33.45 165.95-35.7 170.25-35.7L170.25-35.7Q174.55-35.7 177.9-33.45 181.25-31.2 183.15-27.08 185.05-22.95 185.05-17.5L185.05-17.5Q185.05-12.05 183.15-7.93 181.25-3.8 177.9-1.55 174.55 0.7 170.25 0.7L170.25 0.7ZM170.25-3.85Q175.05-3.85 177.63-7.68 180.2-11.5 180.2-17.5L180.2-17.5Q180.2-23.5 177.63-27.33 175.05-31.15 170.25-31.15L170.25-31.15Q165.45-31.15 162.85-27.33 160.25-23.5 160.25-17.5L160.25-17.5Q160.25-11.5 162.85-7.68 165.45-3.85 170.25-3.85L170.25-3.85ZM190.2 0L190.2-35 199.2-35Q204.7-35 207.78-32.27 210.85-29.55 210.85-24.3L210.85-24.3Q210.85-21.3 209.43-18.88 208-16.45 205.45-15.05L205.45-15.05 212.45 0 207.05 0 200.8-13.7Q200-13.6 199.15-13.6L199.15-13.6 194.75-13.6 194.75 0 190.2 0ZM194.75-17.8L198.8-17.8Q202.6-17.8 204.35-19.45 206.1-21.1 206.1-24.3L206.1-24.3Q206.1-27.55 204.35-29.2 202.6-30.85 198.8-30.85L198.8-30.85 194.75-30.85 194.75-17.8ZM217.8 0L217.8-35 222.35-35 222.35 0 217.8 0ZM233.85 0L222.6-18.55 233.85-35 238.9-35 227.55-18.55 238.9 0 233.85 0ZM283.3 0L278.4 0 276.1-25.3 267.65-7.25 259.2-25.3 256.85 0 252 0 255.8-35 259.65-35 267.65-16.95 275.65-35 279.5-35 283.3 0ZM306.85 0L304.05-9.5 293.2-9.5 290.4 0 285.5 0 296.25-35 300.95-35 311.7 0 306.85 0ZM294.45-13.75L302.8-13.75 298.6-27.95 294.45-13.75ZM315.4 0L315.4-35 320.55-35 334.4-9.4 334.4-35 338.95-35 338.95 0 334.7 0 319.95-27.05 319.95 0 315.4 0ZM364 0L361.2-9.5 350.35-9.5 347.55 0 342.65 0 353.4-35 358.1-35 368.85 0 364 0ZM351.6-13.75L359.95-13.75 355.75-27.95 351.6-13.75ZM386.7 0.7Q381.65 0.7 377.95-1.63 374.25-3.95 372.28-8.08 370.3-12.2 370.3-17.5L370.3-17.5Q370.3-22.95 372.4-27.08 374.5-31.2 378.18-33.45 381.85-35.7 386.55-35.7L386.55-35.7Q390.85-35.7 394.35-34.2L394.35-34.2 393.85-29.95Q392.2-30.75 390.57-31.15 388.95-31.55 387-31.55L387-31.55Q383.3-31.55 380.68-29.7 378.05-27.85 376.7-24.65 375.35-21.45 375.35-17.5L375.35-17.5Q375.35-11.2 378.3-7.33 381.25-3.45 386.95-3.45L386.95-3.45Q389.15-3.45 390.8-4.15L390.8-4.15 390.8-13.4 386.35-13.4 386.35-17.55 395.35-17.55 395.35-1.6Q393.7-0.55 391.4 0.08 389.1 0.7 386.7 0.7L386.7 0.7ZM400.65 0L400.65-35 419.35-35 419.35-30.85 405.2-30.85 405.2-20.4 416.4-20.4 416.4-16.2 405.2-16.2 405.2-4.15 419.75-4.15 419.75 0 400.65 0ZM454.85 0L449.95 0 447.65-25.3 439.2-7.25 430.75-25.3 428.4 0 423.55 0 427.35-35 431.2-35 439.2-16.95 447.2-35 451.05-35 454.85 0ZM459.7 0L459.7-35 478.4-35 478.4-30.85 464.25-30.85 464.25-20.4 475.45-20.4 475.45-16.2 464.25-16.2 464.25-4.15 478.8-4.15 478.8 0 459.7 0ZM483.55 0L483.55-35 488.7-35 502.55-9.4 502.55-35 507.1-35 507.1 0 502.85 0 488.1-27.05 488.1 0 483.55 0ZM520 0L520-30.85 511.3-30.85 511.3-35 533.3-35 533.3-30.85 524.6-30.85 524.6 0 520 0ZM555.5 0.7Q553.05 0.7 550.38 0.13 547.7-0.45 546-1.25L546-1.25 546.65-6.25Q548.65-5 551.1-4.23 553.55-3.45 555.95-3.45L555.95-3.45Q559.05-3.45 560.8-4.73 562.55-6 562.55-8.45L562.55-8.45Q562.55-10.2 561.73-11.45 560.9-12.7 559.35-13.68 557.8-14.65 555-15.9L555-15.9Q551.7-17.4 549.78-18.65 547.85-19.9 546.7-21.75 545.55-23.6 545.55-26.35L545.55-26.35Q545.55-29.15 547-31.28 548.45-33.4 551.08-34.55 553.7-35.7 557.05-35.7L557.05-35.7Q559.6-35.7 561.88-35.15 564.15-34.6 565.75-33.8L565.75-33.8 565.25-29.1Q561.1-31.55 556.8-31.55L556.8-31.55Q553.9-31.55 552.25-30.35 550.6-29.15 550.6-26.65L550.6-26.65Q550.6-24.95 551.48-23.83 552.35-22.7 553.9-21.83 555.45-20.95 558.6-19.5L558.6-19.5Q563.3-17.4 565.45-14.98 567.6-12.55 567.6-8.9L567.6-8.9Q567.6-4.45 564.35-1.88 561.1 0.7 555.5 0.7L555.5 0.7ZM589-35L594.05-35 583.75-15.15 583.75 0 579.2 0 579.2-15.15 568.8-35 573.85-35 581.45-19.95 589-35ZM606.05 0.7Q603.6 0.7 600.93 0.13 598.25-0.45 596.55-1.25L596.55-1.25 597.2-6.25Q599.2-5 601.65-4.23 604.1-3.45 606.5-3.45L606.5-3.45Q609.6-3.45 611.35-4.73 613.1-6 613.1-8.45L613.1-8.45Q613.1-10.2 612.28-11.45 611.45-12.7 609.9-13.68 608.35-14.65 605.55-15.9L605.55-15.9Q602.25-17.4 600.33-18.65 598.4-19.9 597.25-21.75 596.1-23.6 596.1-26.35L596.1-26.35Q596.1-29.15 597.55-31.28 599-33.4 601.63-34.55 604.25-35.7 607.6-35.7L607.6-35.7Q610.15-35.7 612.43-35.15 614.7-34.6 616.3-33.8L616.3-33.8 615.8-29.1Q611.65-31.55 607.35-31.55L607.35-31.55Q604.45-31.55 602.8-30.35 601.15-29.15 601.15-26.65L601.15-26.65Q601.15-24.95 602.03-23.83 602.9-22.7 604.45-21.83 606-20.95 609.15-19.5L609.15-19.5Q613.85-17.4 616-14.98 618.15-12.55 618.15-8.9L618.15-8.9Q618.15-4.45 614.9-1.88 611.65 0.7 606.05 0.7L606.05 0.7ZM629 0L629-30.85 620.3-30.85 620.3-35 642.3-35 642.3-30.85 633.6-30.85 633.6 0 629 0ZM646.5 0L646.5-35 665.2-35 665.2-30.85 651.05-30.85 651.05-20.4 662.25-20.4 662.25-16.2 651.05-16.2 651.05-4.15 665.6-4.15 665.6 0 646.5 0ZM700.7 0L695.8 0 693.5-25.3 685.05-7.25 676.6-25.3 674.25 0 669.4 0 673.2-35 677.05-35 685.05-16.95 693.05-35 696.9-35 700.7 0Z" opacity="1" transform="matrix(1,0,0,1,0,0)" fill="#ffffff" class="slogan-text-1" data-fill-palette-color="quaternary" id="text-1"></path></svg></g></svg></g></svg></g></svg></g><g transform="matrix(1,0,0,1,30.17470894011636,0)"><svg viewBox="0 0 152.8090233469244 111.84223146915602" height="111.84223146915602" width="152.8090233469244"><g><svg xmlns="http://www.w3.org/2000/svg" xmlns:xlink="http://www.w3.org/1999/xlink" version="1.1" x="0" y="0" viewBox="1.4118892908434515 9.608999999999995 61.17567514955605 44.77500000000002" enable-background="new 0 0 64 64" xml:space="preserve" height="111.84223146915602" width="152.8090233469244" class="icon-icon-0" data-fill-palette-color="quaternary" id="icon-0"><path d="M62.458 24.153c-0.033-0.125-0.014-0.272 0.021-0.507 0.027-0.197 0.055-0.4 0.055-0.614 0-1.061-1.346-2.141-2.146-2.34-0.344-0.085-0.736 0.146-0.895 0.463-0.058 0.116-0.129 0.244-0.214 0.395-0.087 0.157-0.186 0.334-0.295 0.542-0.298 0.56-0.292 1.254-0.286 1.882 0.003 0.289 0.009 0.773-0.011 0.852-0.085 0.08-0.126 0.089-0.127 0.089-0.141 0-0.515-0.328-0.7-0.492-0.395-0.344-0.802-0.701-1.353-0.701-0.255 0-0.702 0.084-1.042 0.602-0.025-0.004-0.05-0.009-0.075-0.014-0.432-0.074-0.849-0.071-1.15 0.075-0.205 0.099-0.364 0.226-0.504 0.336-0.015 0.012-0.034 0.028-0.054 0.044-0.117-0.076-0.179-0.144-0.256-0.229-0.348-0.387-0.698-0.611-1.463-0.611-0.094 0-0.198 0.003-0.259 0.009-0.825 0-1.288 0.552-1.554 0.906-0.513-0.458-1.171-0.556-1.656-0.628-0.151-0.022-0.365-0.055-0.479-0.09-0.014-0.057-0.029-0.128-0.047-0.206-0.178-0.792-0.379-1.689-1.257-1.739-0.532 0-1.041 0.387-1.745 0.923-0.265 0.201-0.706 0.538-0.864 0.598-0.366 0.142-0.668 0.213-0.898 0.213-0.358 0-0.629-0.17-1.262-0.591-0.203-0.133-0.431-0.283-0.686-0.436-1.251-0.75-2.413-0.859-3.446-0.956-0.771-0.072-1.436-0.134-2.111-0.435-0.801-0.354-1.806-0.071-2.587 0.224-0.324 0.123-0.715 0.305-0.952 0.259-0.002-0.001-0.233-0.174-0.355-1.2-0.238-1.995-1.376-2.293-2.033-2.293-0.745 0-1.507 0.355-2.318 0.734-0.627 0.293-1.338 0.625-1.8 0.625-0.189 0-0.336-0.029-0.504-0.408-0.157-0.354-0.526-1.184-1.385-1.184-0.213 0-0.392 0.054-0.551 0.102-0.04 0.012-0.077 0.023-0.11 0.033-0.024-0.037-0.048-0.077-0.075-0.117-0.304-0.467-0.806-1.24-1.841-1.434-0.223-0.086-0.487-0.166-0.772-0.251-0.374-0.111-1.152-0.342-1.252-0.477 0.442-1.147 0.437-2.187-0.013-2.93-0.256-0.423-0.782-0.954-1.858-1.076-0.963-0.109-2.281-0.259-3.036-0.659-0.103-0.057-0.449-0.336-0.693-0.533-1.119-0.903-1.667-1.299-2.222-1.299-0.489 0-0.892 0.337-0.979 0.82-0.017 0.098-0.114 0.251-0.414 0.148-0.256-0.083-0.489-0.124-0.712-0.124-0.644 0-1.028 0.341-1.261 0.546-0.045 0.041-0.091 0.083-0.181 0.147-0.169 0.124-0.284 0.357-0.307 0.566-0.191 1.75 0.556 3.309 2.05 4.276 0.283 0.183 0.333 0.67 0.374 1.339 0.042 0.692 0.094 1.554 0.792 2.015 0.238 0.157 0.502 0.265 0.761 0.37 0.2 0.082 0.535 0.219 0.587 0.266 0.09 0.445 0.395 0.929 0.72 1.446 0.007 0.011 0.014 0.022 0.022 0.035-1.82 0.458-3.251 0.883-3.796 1.75-0.145 0.23-0.18 0.512-0.101 0.793 0.185 0.659 1.319 1.797 1.753 2.015 0.482 0.241 0.692 0.411 0.773 0.479-0.104 0.125-0.317 0.312-0.468 0.444-0.528 0.459-1.186 1.03-1.17 1.901 0.012 0.581 0.322 1.108 0.946 1.609l0.11 0.089c0.04 0.032 0.083 0.059 0.127 0.081 0.666 0.613 1.914 1.56 2.274 1.776 0.478 0.288 1.042 0.32 1.621 0.24 0.199-0.027 0.398-0.046 0.5 0.005 0.489 0.244 0.793 0.587 1.117 0.95 0.064 0.072 0.13 0.146 0.2 0.222-0.139-0.021-0.278-0.041-0.417-0.062-1.303-0.193-2.403-0.324-2.984-0.011-0.227 0.12-0.44 0.065-0.678 0.021-0.669-0.122-1.415-0.085-2.056 0.36-1.066 0.74-2.441 2.162-3.105 3.057-0.615 0.829-2.491 1.806-3.611 2.389l-0.443 0.232c-2.223 1.179-2.042 2.982-1.896 4.434 0.069 0.694 0.135 1.35-0.009 1.971-0.305 1.297 0.647 1.812 1.168 2.094 0.172 0.093 0.338 0.183 0.47 0.289l-0.234 1.524c-0.057 0.369 0.166 0.724 0.523 0.832 0.004 0.001 0.092 0.027 0.096 0.029 2.814 0.803 5.262 0.435 7.043-1.051 0.104 0.149 0.208 0.312 0.264 0.399 0.136 0.214 0.256 0.396 0.349 0.504 0.387 0.45 0.821 0.545 1.118 0.545 0.344 0 0.63-0.124 0.834-0.212 0.034-0.015 0.064-0.026 0.089-0.037 0.395 0.434 1.317 1.811 1.66 2.43 0.383 0.689 0.891 0.834 1.25 0.834 0.573 0 1.013-0.367 1.412-0.7 0.174-0.147 0.466-0.394 0.583-0.413 0.116-0.019 0.223-0.028 0.339-0.028l0.293 0.008c0.916 0 1.093-0.677 1.127-1.265 0.064 0.058 0.118 0.109 0.154 0.144l0.175 0.16c0.519 0.465 1.162 0.7 1.911 0.7 0.631 0 1.265-0.164 1.824-0.31l0.351-0.091c0.043-0.012 0.085-0.027 0.125-0.046 0.417-0.197 0.933-0.519 1.497-0.869 0.764-0.477 1.919-1.197 2.396-1.237 0.121-0.013 0.287-0.004 0.48 0.004l0.449 0.009c0.438 0 1.35 0 1.794-0.68 0.171-0.264 0.317-0.707 0.036-1.403 0.17-0.114 0.809-0.402 2.925-0.402l0.693 0.006c0.531 0.475 2.155 2.434 2.771 3.286l0.077 0.112c0.7 1.007 1.276 1.631 1.99 1.631 0.422 0 0.8-0.237 1.011-0.631l0.136-0.258c0.366-0.707 0.62-1.138 1.053-1.154 0.792-0.031 1.226-0.399 1.515-0.646 0.155-0.132 0.241-0.202 0.365-0.244 0.097-0.03 0.735-0.021 1.3 0.054 0.303 0.039 0.59 0.075 0.834 0.084 0.01 0.001 0.105 0.001 0.115 0.001 1.55 0 1.613-1.285 1.635-1.711 0.011-0.226 0.021-0.438 0.056-0.487 0.647-0.701 1.085-1.369 1.302-1.986 0.16-0.455 0.153-0.835 0.146-1.193l-0.004-0.203c0.021-0.213 0.401-0.888 0.687-1.223 0.28-0.326 0.381-0.663 0.458-0.923 0.042-0.146 0.067-0.226 0.101-0.283 0.036 0.02 0.072 0.039 0.102 0.056 0.234 0.128 0.524 0.287 0.895 0.287 0.281 0 0.805-0.101 1.157-0.777 0.412-0.792 0.602-0.83 0.901-0.83 0.129 0 0.271 0.018 0.371 0.035l1.005 0.278c0.302 0.085 0.67-0.089 0.853-0.348 0.161-0.228 0.291-0.46 0.419-0.693 0.259-0.472 0.41-0.725 0.748-0.883l0.151-0.071c1.182-0.549 3.16-1.469 2.736-3.545-0.247-1.21-1.012-1.82-1.627-2.311-0.63-0.504-1.01-0.809-0.959-1.69 0.067-1.188 0.15-1.203 0.499-1.266 0.761-0.138 1.525-1.024 2.574-2.325 0.137-0.168 0.257-0.319 0.356-0.434 0.122-0.08 0.233-0.167 0.344-0.256 0.075-0.062 0.144-0.124 0.23-0.169 0.585-0.309 1.173-0.722 1.505-1.64C62.668 25.104 62.574 24.589 62.458 24.153zM61.073 25.11c-0.138 0.381-0.323 0.573-0.794 0.821-0.174 0.092-0.322 0.206-0.482 0.335-0.075 0.062-0.151 0.128-0.246 0.181-0.07 0.04-0.134 0.09-0.188 0.15-0.124 0.136-0.29 0.341-0.533 0.643-0.388 0.48-1.295 1.606-1.623 1.727-1.595 0.289-1.669 1.602-1.729 2.656-0.095 1.654 0.8 2.371 1.522 2.949 0.533 0.426 0.954 0.762 1.092 1.438 0.16 0.783-0.457 1.215-1.899 1.885l-0.153 0.072c-0.798 0.374-1.147 1.009-1.432 1.526-0.029 0.054-0.059 0.107-0.091 0.164l-0.522-0.145c-1.636-0.317-2.349 0.465-2.895 1.457-0.019-0.01-0.036-0.02-0.052-0.027-0.224-0.124-0.53-0.293-0.901-0.293-0.283 0-0.556 0.102-0.794 0.298-0.46 0.387-0.582 0.813-0.671 1.123-0.054 0.181-0.086 0.279-0.156 0.361-0.222 0.26-1.047 1.39-1.047 2.187l0.005 0.267c0.005 0.258 0.009 0.445-0.061 0.644-0.146 0.412-0.496 0.933-1.029 1.514-0.369 0.472-0.395 1.001-0.412 1.387-0.004 0.084-0.01 0.198-0.021 0.274-0.036 0.004-0.091 0.008-0.172 0.009-0.205-0.009-0.445-0.041-0.699-0.074-0.668-0.087-1.478-0.154-1.974 0.014-0.401 0.135-0.654 0.351-0.857 0.523-0.225 0.19-0.327 0.277-0.601 0.289-1.274 0.048-1.876 1.1-2.273 1.86-0.135-0.143-0.333-0.386-0.619-0.797l-0.096-0.138c-0.027-0.038-2.774-3.813-3.769-3.911l-0.915-0.009c-2.422 0-3.729 0.347-4.235 1.126-0.179 0.276-0.335 0.729-0.087 1.336-0.091 0.013-0.229 0.023-0.433 0.023l-0.406-0.009c-0.256-0.007-0.501-0.014-0.658 0.003-0.768 0.063-1.75 0.645-3.073 1.469-0.478 0.298-0.931 0.58-1.266 0.745l-0.273 0.071c-0.928 0.24-1.834 0.411-2.354-0.054l-0.151-0.139c-0.529-0.5-1.051-0.949-1.614-0.949-0.318 0-1.059 0.146-1.059 1.5 0 0.052 0 0.104 0 0.156-0.171 0.003-0.335 0.019-0.511 0.047-0.527 0.088-0.942 0.438-1.312 0.75-0.111 0.093-0.263 0.22-0.374 0.293-0.002-0.004-0.004-0.007-0.006-0.011-0.015-0.026-1.582-2.704-2.33-3.103-0.169-0.089-0.355-0.135-0.552-0.135-0.29 0-0.547 0.099-0.771 0.193-0.075 0.033-0.199 0.089-0.221 0.072-0.059-0.07-0.133-0.193-0.226-0.34-0.497-0.778-0.895-1.329-1.506-1.329-0.235 0-0.459 0.095-0.632 0.269-1.315 1.317-3.096 1.757-5.465 1.219l0.186-1.208c0.029-0.189-0.015-0.383-0.124-0.54-0.343-0.497-0.822-0.756-1.181-0.949-0.146-0.078-0.39-0.211-0.426-0.275 0 0-0.011-0.042 0.015-0.151 0.202-0.864 0.116-1.714 0.041-2.464-0.152-1.521-0.169-2.28 1.105-2.957l0.434-0.228c1.315-0.684 3.302-1.718 4.123-2.825 0.583-0.785 1.858-2.095 2.756-2.718 0.325-0.226 0.628-0.17 0.931-0.117 0.58 0.106 1.143 0.102 1.644-0.169 0.003-0.001 0.079-0.028 0.306-0.028 0.444 0 1.114 0.1 1.765 0.196 0.807 0.119 1.642 0.242 2.349 0.242 0.591-0.001 1.422-0.076 1.808-0.717 0.138-0.229 0.144-0.514 0.016-0.748-0.128-0.233-0.371-0.382-0.638-0.39-1.088-0.029-1.444-0.428-1.982-1.031-0.365-0.41-0.819-0.92-1.564-1.292-0.411-0.208-0.859-0.221-1.389-0.148-0.241 0.034-0.491 0.044-0.632-0.041-0.312-0.187-1.679-1.237-2.161-1.718-0.067-0.068-0.147-0.119-0.233-0.153-0.323-0.272-0.335-0.413-0.335-0.428-0.003-0.169 0.408-0.526 0.656-0.742 0.495-0.432 1.111-0.97 1.015-1.737-0.102-0.795-0.927-1.303-1.614-1.646-0.182-0.115-0.624-0.57-0.858-0.873 0.589-0.378 2.075-0.75 2.836-0.941 0.314-0.079 0.585-0.148 0.784-0.209 0.218-0.066 0.395-0.229 0.479-0.441 0.179-0.453-0.077-0.859-0.545-1.603-0.191-0.304-0.48-0.764-0.517-0.942-0.167-0.814-0.932-1.126-1.493-1.355-0.198-0.081-0.384-0.157-0.488-0.223-0.086-0.105-0.115-0.58-0.132-0.865-0.048-0.8-0.114-1.897-1.056-2.506-0.948-0.614-1.426-1.498-1.391-2.601 0.004-0.003 0.007-0.006 0.011-0.009 0.181-0.16 0.204-0.167 0.263-0.167 0.063 0 0.146 0.017 0.244 0.049 0.759 0.253 1.673 0.071 2.136-0.701 0.324 0.224 0.761 0.577 1.021 0.787 0.433 0.349 0.708 0.567 0.916 0.677 1.007 0.534 2.489 0.702 3.598 0.828 0.536 0.062 0.672 0.286 0.717 0.36 0.198 0.327 0.159 0.93-0.104 1.613-0.198 0.514-0.097 0.916 0.025 1.165 0.369 0.747 1.341 1.036 2.207 1.292 0.259 0.077 0.505 0.149 0.704 0.23 0.056 0.023 0.114 0.039 0.174 0.048 0.4 0.06 0.615 0.349 0.897 0.783 0.241 0.371 0.541 0.833 1.115 0.833 0.334 0 0.588-0.076 0.766-0.13 0.032 0.054 0.074 0.136 0.127 0.256 0.477 1.074 1.283 1.299 1.875 1.299 0.795 0 1.629-0.39 2.438-0.768 0.624-0.291 1.269-0.591 1.681-0.591 0.139 0 0.428 0 0.544 0.971 0.074 0.625 0.3 2.525 1.896 2.525 0.488 0 0.97-0.184 1.433-0.36 0.543-0.205 1.111-0.407 1.446-0.255 0.901 0.399 1.755 0.479 2.588 0.558 0.951 0.089 1.849 0.173 2.809 0.748 0.235 0.141 0.444 0.279 0.68 0.434 0.98 0.654 1.861 1.12 3.477 0.493 0.332-0.128 0.703-0.401 1.232-0.804 0.161-0.123 0.367-0.279 0.547-0.405 0.034 0.134 0.064 0.269 0.083 0.353 0.045 0.208 0.091 0.387 0.12 0.469 0.28 0.782 1.07 0.9 1.648 0.986 0.339 0.05 0.723 0.107 0.896 0.281 0.36 0.358 0.704 0.533 1.05 0.533 0.555 0 0.87-0.421 1.087-0.711 0.19-0.257 0.288-0.364 0.445-0.366 0.294-0.02 0.462 0.012 0.467 0.012 0.014 0.01 0.044 0.042 0.096 0.099 0.133 0.146 0.335 0.368 0.73 0.587 0.215 0.121 0.435 0.182 0.654 0.182 0.454 0 0.771-0.257 0.982-0.428 0.076-0.061 0.154-0.123 0.179-0.129 0.087 0 0.183 0.016 0.272 0.031 0.172 0.03 0.35 0.056 0.506 0.056 0.52 0 0.805-0.253 0.976-0.511 0.086 0.069 0.184 0.155 0.262 0.223 0.436 0.382 0.979 0.858 1.684 0.858 0.417 0 0.806-0.168 1.157-0.5 0.497-0.471 0.489-1.228 0.48-1.971-0.004-0.434-0.009-0.925 0.111-1.15 0.072-0.138 0.14-0.261 0.202-0.373 0.245 0.2 0.489 0.466 0.521 0.61 0 0.14-0.021 0.272-0.04 0.4-0.044 0.301-0.1 0.676 0.015 1.105C61.04 24.656 61.123 24.969 61.073 25.11z" fill="#ffffff" data-fill-palette-color="quaternary"></path></svg></g></svg></g><g></g></svg></g></svg></g></svg></g></svg></g><defs></defs></svg><rect width="339.23666899931607" height="339.23666899931607" fill="none" stroke="none" visibility="hidden"></rect></g></svg></g></svg>